<?xml version="1.0" encoding="UTF-8" standalone="no"?>
<!DOCTYPE svg PUBLIC "-//W3C//DTD SVG 1.1//EN"
 "http://www.w3.org/Graphics/SVG/1.1/DTD/svg11.dtd">
<!-- Generated by graphviz version 2.50.0 (0)
 -->
<!-- Pages: 1 -->
<svg width="1608pt" height="343pt"
 viewBox="0.00 0.00 1608.00 342.74" xmlns="http://www.w3.org/2000/svg" xmlns:xlink="http://www.w3.org/1999/xlink">
<g id="graph0" class="graph" transform="scale(1 1) rotate(0) translate(4 338.74)">
<polygon fill="white" stroke="transparent" points="-4,4 -4,-338.74 1604,-338.74 1604,4 -4,4"/>
<text text-anchor="middle" x="800" y="-7.8" font-family="Times,serif" font-size="14.00">Legend</text>
<g id="clust1" class="cluster">
<title>cluster_6</title>
<polygon fill="none" stroke="black" points="8,-234 8,-326.74 1592,-326.74 1592,-234 8,-234"/>
<text text-anchor="middle" x="800" y="-311.54" font-family="Times,serif" font-size="14.00">ValidatorScript</text>
</g>
<g id="clust2" class="cluster">
<title>cluster_7</title>
<polygon fill="none" stroke="black" points="256,-31 256,-106 769,-106 769,-31 256,-31"/>
<text text-anchor="middle" x="512.5" y="-90.8" font-family="Times,serif" font-size="14.00">Wallet&#39;s wallet</text>
</g>
<!-- 1 -->
<g id="node1" class="node">
<title>1</title>
<ellipse fill="none" stroke="black" cx="271" cy="-268.87" rx="255.03" ry="26.74"/>
<text text-anchor="middle" x="271" y="-272.67" font-family="Times,serif" font-size="14.00">Some MintedToken MPToken, Some OtherToken</text>
<text text-anchor="middle" x="271" y="-257.67" font-family="Times,serif" font-size="14.00">&lt;ValidatorDatum&gt;</text>
</g>
<!-- 0 -->
<g id="node6" class="node">
<title>0</title>
<polygon fill="none" stroke="black" points="871.1,-161.54 871.1,-176.46 829.45,-187 770.55,-187 728.9,-176.46 728.9,-161.54 770.55,-151 829.45,-151 871.1,-161.54"/>
<polygon fill="none" stroke="black" points="875.11,-158.43 875.11,-179.57 829.95,-191 770.05,-191 724.89,-179.57 724.89,-158.43 770.05,-147 829.95,-147 875.11,-158.43"/>
<text text-anchor="middle" x="800" y="-165.3" font-family="Times,serif" font-size="14.00">Transaction</text>
</g>
<!-- 1&#45;&gt;0 -->
<g id="edge4" class="edge">
<title>1&#45;&gt;0</title>
<path fill="none" stroke="black" d="M351.38,-243.29C392.27,-231.53 442.94,-218.06 489,-209 564.61,-194.12 651.74,-183.77 714.5,-177.49"/>
<polygon fill="black" stroke="black" points="715.15,-180.94 724.75,-176.48 714.46,-173.98 715.15,-180.94"/>
<text text-anchor="middle" x="642.5" y="-212.8" font-family="Times,serif" font-size="14.00">ValidatorRedeemer@scriptConsumedInput</text>
</g>
<!-- 2 -->
<g id="node2" class="node">
<title>2</title>
<ellipse fill="none" stroke="black" cx="1329" cy="-268.87" rx="255.03" ry="26.74"/>
<text text-anchor="middle" x="1329" y="-272.67" font-family="Times,serif" font-size="14.00">Some MintedToken MPToken, Some OtherToken</text>
<text text-anchor="middle" x="1329" y="-257.67" font-family="Times,serif" font-size="14.00">&lt;ValidatorDatum&gt;</text>
</g>
<!-- 9 -->
<g id="node3" class="node">
<title>9</title>
<ellipse fill="none" stroke="black" cx="800" cy="-268.87" rx="255.03" ry="26.74"/>
<text text-anchor="middle" x="800" y="-272.67" font-family="Times,serif" font-size="14.00">Some MintedToken MPToken, Some OtherToken</text>
<text text-anchor="middle" x="800" y="-257.67" font-family="Times,serif" font-size="14.00">&lt;ValidatorDatum&gt;</text>
</g>
<!-- 9&#45;&gt;0 -->
<g id="edge6" class="edge">
<title>9&#45;&gt;0</title>
<path fill="none" stroke="black" stroke-dasharray="5,2" d="M800,-241.9C800,-229.39 800,-214.29 800,-201.16"/>
<polygon fill="black" stroke="black" points="803.5,-201.14 800,-191.14 796.5,-201.14 803.5,-201.14"/>
<text text-anchor="middle" x="876" y="-212.8" font-family="Times,serif" font-size="14.00">scriptReferenceInput</text>
</g>
<!-- 3 -->
<g id="node4" class="node">
<title>3</title>
<ellipse fill="none" stroke="black" cx="410" cy="-57" rx="145.67" ry="18"/>
<text text-anchor="middle" x="410" y="-53.3" font-family="Times,serif" font-size="14.00">Some MintedToken MPToken</text>
</g>
<!-- 3&#45;&gt;0 -->
<g id="edge5" class="edge">
<title>3&#45;&gt;0</title>
<path fill="none" stroke="black" d="M456.22,-74.1C500.7,-89.3 570,-112.2 631,-129 662.56,-137.69 697.79,-146.04 727.88,-152.76"/>
<polygon fill="black" stroke="black" points="727.36,-156.23 737.88,-154.98 728.87,-149.39 727.36,-156.23"/>
<text text-anchor="middle" x="672" y="-117.8" font-family="Times,serif" font-size="14.00">walletInput</text>
</g>
<!-- 4 -->
<g id="node5" class="node">
<title>4</title>
<ellipse fill="none" stroke="black" cx="667" cy="-57" rx="93.68" ry="18"/>
<text text-anchor="middle" x="667" y="-53.3" font-family="Times,serif" font-size="14.00">Some OtherToken</text>
</g>
<!-- 0&#45;&gt;2 -->
<g id="edge1" class="edge">
<title>0&#45;&gt;2</title>
<path fill="none" stroke="black" d="M865.38,-182.1C947.66,-197.32 1090.98,-223.83 1196.54,-243.36"/>
<polygon fill="black" stroke="black" points="1196.17,-246.85 1206.64,-245.23 1197.44,-239.97 1196.17,-246.85"/>
<text text-anchor="middle" x="1126" y="-212.8" font-family="Times,serif" font-size="14.00">scriptOutput</text>
</g>
<!-- 0&#45;&gt;4 -->
<g id="edge2" class="edge">
<title>0&#45;&gt;4</title>
<path fill="none" stroke="black" d="M763.17,-148.7C753.33,-142.89 742.94,-136.14 734,-129 716.79,-115.25 699.79,-97.17 687.22,-82.69"/>
<polygon fill="black" stroke="black" points="689.87,-80.41 680.72,-75.07 684.55,-84.95 689.87,-80.41"/>
<text text-anchor="middle" x="781" y="-117.8" font-family="Times,serif" font-size="14.00">walletOutput</text>
</g>
<!-- 5 -->
<g id="node7" class="node">
<title>5</title>
<polygon fill="none" stroke="black" points="822.15,-39 945.85,-39 989.91,-75 778.09,-75 822.15,-39"/>
<text text-anchor="middle" x="884" y="-53.3" font-family="Times,serif" font-size="14.00">MintingPolicy</text>
</g>
<!-- 0&#45;&gt;5 -->
<g id="edge3" class="edge">
<title>0&#45;&gt;5</title>
<path fill="none" stroke="black" d="M822.31,-138.79C837.8,-118.5 857.91,-92.17 870.89,-75.17"/>
<polygon fill="black" stroke="black" points="819.48,-136.72 816.2,-146.79 825.05,-140.97 819.48,-136.72"/>
<text text-anchor="middle" x="967" y="-117.8" font-family="Times,serif" font-size="14.00">PolicyRedeemer @ mint 1 MPToken</text>
</g>
</g>
</svg>
