<?xml version="1.0" encoding="UTF-8" standalone="no"?>
<!DOCTYPE svg PUBLIC "-//W3C//DTD SVG 1.1//EN"
 "http://www.w3.org/Graphics/SVG/1.1/DTD/svg11.dtd">
<!-- Generated by graphviz version 2.50.0 (0)
 -->
<!-- Pages: 1 -->
<svg width="2499pt" height="343pt"
 viewBox="0.00 0.00 2499.00 342.74" xmlns="http://www.w3.org/2000/svg" xmlns:xlink="http://www.w3.org/1999/xlink">
<g id="graph0" class="graph" transform="scale(1 1) rotate(0) translate(4 338.74)">
<polygon fill="white" stroke="transparent" points="-4,4 -4,-338.74 2495,-338.74 2495,4 -4,4"/>
<text text-anchor="middle" x="1245.5" y="-7.8" font-family="Times,serif" font-size="14.00">serial</text>
<g id="clust1" class="cluster">
<title>cluster_71</title>
<polygon fill="none" stroke="black" points="915,-31 915,-106 1250,-106 1250,-31 915,-31"/>
<text text-anchor="middle" x="1082.5" y="-90.8" font-family="Times,serif" font-size="14.00">Alice&#39;s wallet</text>
</g>
<g id="clust2" class="cluster">
<title>cluster_79</title>
<polygon fill="none" stroke="black" points="1258,-31 1258,-106 1593,-106 1593,-31 1258,-31"/>
<text text-anchor="middle" x="1425.5" y="-90.8" font-family="Times,serif" font-size="14.00">Bob&#39;s wallet</text>
</g>
<g id="clust3" class="cluster">
<title>cluster_86</title>
<polygon fill="none" stroke="black" points="8,-234 8,-326.74 1147,-326.74 1147,-234 8,-234"/>
<text text-anchor="middle" x="577.5" y="-311.54" font-family="Times,serif" font-size="14.00">Oracle 1</text>
</g>
<g id="clust4" class="cluster">
<title>cluster_87</title>
<polygon fill="none" stroke="black" points="2157,-31 2157,-106 2319,-106 2319,-31 2157,-31"/>
<text text-anchor="middle" x="2238" y="-90.8" font-family="Times,serif" font-size="14.00">Owner&#39;s wallet</text>
</g>
<g id="clust5" class="cluster">
<title>cluster_94</title>
<polygon fill="none" stroke="black" points="1155,-234 1155,-326.74 1373,-326.74 1373,-234 1155,-234"/>
<text text-anchor="middle" x="1264" y="-311.54" font-family="Times,serif" font-size="14.00">Oracle 2</text>
</g>
<g id="clust6" class="cluster">
<title>cluster_102</title>
<polygon fill="none" stroke="black" points="1381,-234 1381,-326.74 2483,-326.74 2483,-234 1381,-234"/>
<text text-anchor="middle" x="1932" y="-311.54" font-family="Times,serif" font-size="14.00">CentralExchange</text>
</g>
<!-- 19 -->
<g id="node1" class="node">
<title>19</title>
<ellipse fill="none" stroke="black" cx="998" cy="-57" rx="75.29" ry="18"/>
<text text-anchor="middle" x="998" y="-53.3" font-family="Times,serif" font-size="14.00">Some Token 1</text>
</g>
<!-- 16 -->
<g id="node14" class="node">
<title>16</title>
<polygon fill="none" stroke="black" points="1445.49,-161.54 1445.49,-176.46 1398.93,-187 1333.07,-187 1286.51,-176.46 1286.51,-161.54 1333.07,-151 1398.93,-151 1445.49,-161.54"/>
<polygon fill="none" stroke="black" points="1449.49,-158.35 1449.49,-179.65 1399.37,-191 1332.63,-191 1282.51,-179.65 1282.51,-158.35 1332.63,-147 1399.37,-147 1449.49,-158.35"/>
<text text-anchor="middle" x="1366" y="-165.3" font-family="Times,serif" font-size="14.00">Exchange 1 2</text>
</g>
<!-- 19&#45;&gt;16 -->
<g id="edge1" class="edge">
<title>19&#45;&gt;16</title>
<path fill="none" stroke="black" d="M1021.97,-74.1C1038.49,-84.55 1061.31,-97.72 1083,-106 1145.94,-130.04 1220.5,-145.9 1277.29,-155.55"/>
<polygon fill="black" stroke="black" points="1276.88,-159.03 1287.31,-157.23 1278.03,-152.13 1276.88,-159.03"/>
<text text-anchor="middle" x="1176.5" y="-117.8" font-family="Times,serif" font-size="14.00">wallet1</text>
</g>
<!-- 20 -->
<g id="node2" class="node">
<title>20</title>
<ellipse fill="none" stroke="black" cx="1167" cy="-57" rx="75.29" ry="18"/>
<text text-anchor="middle" x="1167" y="-53.3" font-family="Times,serif" font-size="14.00">Some Token 2</text>
</g>
<!-- 27 -->
<g id="node3" class="node">
<title>27</title>
<ellipse fill="none" stroke="black" cx="1341" cy="-57" rx="75.29" ry="18"/>
<text text-anchor="middle" x="1341" y="-53.3" font-family="Times,serif" font-size="14.00">Some Token 2</text>
</g>
<!-- 27&#45;&gt;16 -->
<g id="edge2" class="edge">
<title>27&#45;&gt;16</title>
<path fill="none" stroke="black" d="M1344.9,-75.17C1348.64,-91.64 1354.38,-116.87 1358.93,-136.88"/>
<polygon fill="black" stroke="black" points="1355.55,-137.82 1361.18,-146.79 1362.38,-136.26 1355.55,-137.82"/>
<text text-anchor="middle" x="1382.5" y="-117.8" font-family="Times,serif" font-size="14.00">wallet2</text>
</g>
<!-- 28 -->
<g id="node4" class="node">
<title>28</title>
<ellipse fill="none" stroke="black" cx="1510" cy="-57" rx="75.29" ry="18"/>
<text text-anchor="middle" x="1510" y="-53.3" font-family="Times,serif" font-size="14.00">Some Token 1</text>
</g>
<!-- 1 -->
<g id="node5" class="node">
<title>1</title>
<ellipse fill="none" stroke="black" cx="237" cy="-268.87" rx="221.15" ry="26.74"/>
<text text-anchor="middle" x="237" y="-272.67" font-family="Times,serif" font-size="14.00">Exactly 1 Token 1, MinimumRequiredAda</text>
<text text-anchor="middle" x="237" y="-257.67" font-family="Times,serif" font-size="14.00">&lt;()&gt;</text>
</g>
<!-- 0 -->
<g id="node15" class="node">
<title>0</title>
<polygon fill="none" stroke="black" points="517.51,-161.54 517.51,-176.46 464.49,-187 389.51,-187 336.49,-176.46 336.49,-161.54 389.51,-151 464.49,-151 517.51,-161.54"/>
<polygon fill="none" stroke="black" points="521.5,-158.26 521.5,-179.74 464.88,-191 389.12,-191 332.5,-179.74 332.5,-158.26 389.12,-147 464.88,-147 521.5,-158.26"/>
<text text-anchor="middle" x="427" y="-165.3" font-family="Times,serif" font-size="14.00">UpdateOracle 1</text>
</g>
<!-- 1&#45;&gt;0 -->
<g id="edge3" class="edge">
<title>1&#45;&gt;0</title>
<path fill="none" stroke="black" d="M286.42,-242.41C314.48,-227.96 349.48,-209.93 377.55,-195.47"/>
<polygon fill="black" stroke="black" points="379.49,-198.41 386.77,-190.72 376.28,-192.19 379.49,-198.41"/>
<text text-anchor="middle" x="404.5" y="-212.8" font-family="Times,serif" font-size="14.00">Update@oracle</text>
</g>
<!-- 2 -->
<g id="node6" class="node">
<title>2</title>
<ellipse fill="none" stroke="black" cx="698" cy="-268.87" rx="221.15" ry="26.74"/>
<text text-anchor="middle" x="698" y="-272.67" font-family="Times,serif" font-size="14.00">Exactly 1 Token 1, MinimumRequiredAda</text>
<text text-anchor="middle" x="698" y="-257.67" font-family="Times,serif" font-size="14.00">&lt;()&gt;</text>
</g>
<!-- 25 -->
<g id="node7" class="node">
<title>25</title>
<ellipse fill="none" stroke="black" cx="1038" cy="-268.87" rx="101.23" ry="26.74"/>
<text text-anchor="middle" x="1038" y="-272.67" font-family="Times,serif" font-size="14.00">Exactly 1 Token 1</text>
<text text-anchor="middle" x="1038" y="-257.67" font-family="Times,serif" font-size="14.00">&lt;()&gt;</text>
</g>
<!-- 25&#45;&gt;16 -->
<g id="edge4" class="edge">
<title>25&#45;&gt;16</title>
<path fill="none" stroke="black" stroke-dasharray="5,2" d="M1103.42,-248.24C1119.01,-243.57 1135.6,-238.6 1151,-234 1201.54,-218.9 1258.79,-201.86 1301.5,-189.17"/>
<polygon fill="black" stroke="black" points="1302.62,-192.49 1311.2,-186.28 1300.62,-185.78 1302.62,-192.49"/>
<text text-anchor="middle" x="1259.5" y="-212.8" font-family="Times,serif" font-size="14.00">oracle1</text>
</g>
<!-- 52 -->
<g id="node8" class="node">
<title>52</title>
<ellipse fill="none" stroke="black" cx="2238" cy="-57" rx="72.59" ry="18"/>
<text text-anchor="middle" x="2238" y="-53.3" font-family="Times,serif" font-size="14.00">AnythingElse</text>
</g>
<!-- 33 -->
<g id="node9" class="node">
<title>33</title>
<ellipse fill="none" stroke="black" cx="1264" cy="-268.87" rx="101.23" ry="26.74"/>
<text text-anchor="middle" x="1264" y="-272.67" font-family="Times,serif" font-size="14.00">Exactly 1 Token 2</text>
<text text-anchor="middle" x="1264" y="-257.67" font-family="Times,serif" font-size="14.00">&lt;()&gt;</text>
</g>
<!-- 33&#45;&gt;16 -->
<g id="edge5" class="edge">
<title>33&#45;&gt;16</title>
<path fill="none" stroke="black" stroke-dasharray="5,2" d="M1290.27,-242.67C1304.44,-229.07 1321.98,-212.24 1336.61,-198.2"/>
<polygon fill="black" stroke="black" points="1339.17,-200.6 1343.96,-191.15 1334.32,-195.55 1339.17,-200.6"/>
<text text-anchor="middle" x="1350.5" y="-212.8" font-family="Times,serif" font-size="14.00">oracle2</text>
</g>
<!-- 17 -->
<g id="node10" class="node">
<title>17</title>
<ellipse fill="none" stroke="black" cx="1468" cy="-268.87" rx="79.39" ry="26.74"/>
<text text-anchor="middle" x="1468" y="-272.67" font-family="Times,serif" font-size="14.00">AnythingElse</text>
<text text-anchor="middle" x="1468" y="-257.67" font-family="Times,serif" font-size="14.00">&lt;()&gt;</text>
</g>
<!-- 17&#45;&gt;16 -->
<g id="edge6" class="edge">
<title>17&#45;&gt;16</title>
<path fill="none" stroke="black" d="M1442.52,-243.43C1428.25,-229.73 1410.39,-212.59 1395.51,-198.32"/>
<polygon fill="black" stroke="black" points="1397.68,-195.55 1388.04,-191.15 1392.83,-200.6 1397.68,-195.55"/>
<text text-anchor="middle" x="1466.5" y="-212.8" font-family="Times,serif" font-size="14.00">()@exchange</text>
</g>
<!-- 18 -->
<g id="node11" class="node">
<title>18</title>
<ellipse fill="none" stroke="black" cx="1798" cy="-268.87" rx="232.78" ry="26.74"/>
<text text-anchor="middle" x="1798" y="-272.67" font-family="Times,serif" font-size="14.00">Some Token 1, Some Token 2, AnythingElse</text>
<text text-anchor="middle" x="1798" y="-257.67" font-family="Times,serif" font-size="14.00">&lt;()&gt;</text>
</g>
<!-- 49 -->
<g id="node12" class="node">
<title>49</title>
<ellipse fill="none" stroke="black" cx="2128" cy="-268.87" rx="79.39" ry="26.74"/>
<text text-anchor="middle" x="2128" y="-272.67" font-family="Times,serif" font-size="14.00">AnythingElse</text>
<text text-anchor="middle" x="2128" y="-257.67" font-family="Times,serif" font-size="14.00">&lt;()&gt;</text>
</g>
<!-- 48 -->
<g id="node16" class="node">
<title>48</title>
<polygon fill="none" stroke="black" points="2347.98,-161.54 2347.98,-176.46 2283.56,-187 2192.44,-187 2128.02,-176.46 2128.02,-161.54 2192.44,-151 2283.56,-151 2347.98,-161.54"/>
<polygon fill="none" stroke="black" points="2351.99,-158.15 2351.99,-179.85 2283.88,-191 2192.12,-191 2124.01,-179.85 2124.01,-158.15 2192.12,-147 2283.88,-147 2351.99,-158.15"/>
<text text-anchor="middle" x="2238" y="-165.3" font-family="Times,serif" font-size="14.00">DrainCollectedFees</text>
</g>
<!-- 49&#45;&gt;48 -->
<g id="edge7" class="edge">
<title>49&#45;&gt;48</title>
<path fill="none" stroke="black" d="M2155.47,-243.43C2171,-229.61 2190.48,-212.28 2206.61,-197.93"/>
<polygon fill="black" stroke="black" points="2209.09,-200.41 2214.23,-191.15 2204.43,-195.18 2209.09,-200.41"/>
<text text-anchor="middle" x="2238.5" y="-212.8" font-family="Times,serif" font-size="14.00">()@exchange</text>
</g>
<!-- 50 -->
<g id="node13" class="node">
<title>50</title>
<ellipse fill="none" stroke="black" cx="2350" cy="-268.87" rx="125.32" ry="26.74"/>
<text text-anchor="middle" x="2350" y="-272.67" font-family="Times,serif" font-size="14.00">MinimumRequiredAda</text>
<text text-anchor="middle" x="2350" y="-257.67" font-family="Times,serif" font-size="14.00">&lt;()&gt;</text>
</g>
<!-- 16&#45;&gt;20 -->
<g id="edge9" class="edge">
<title>16&#45;&gt;20</title>
<path fill="none" stroke="black" d="M1329.04,-147.57C1293.54,-127.95 1240.19,-98.46 1204.52,-78.74"/>
<polygon fill="black" stroke="black" points="1205.84,-75.47 1195.4,-73.7 1202.46,-81.6 1205.84,-75.47"/>
<text text-anchor="middle" x="1316.5" y="-117.8" font-family="Times,serif" font-size="14.00">wallet1</text>
</g>
<!-- 16&#45;&gt;28 -->
<g id="edge10" class="edge">
<title>16&#45;&gt;28</title>
<path fill="none" stroke="black" d="M1393.76,-146.79C1418.58,-127.83 1454.85,-100.13 1480.26,-80.72"/>
<polygon fill="black" stroke="black" points="1482.6,-83.33 1488.42,-74.48 1478.35,-77.77 1482.6,-83.33"/>
<text text-anchor="middle" x="1459.5" y="-117.8" font-family="Times,serif" font-size="14.00">wallet2</text>
</g>
<!-- 16&#45;&gt;18 -->
<g id="edge11" class="edge">
<title>16&#45;&gt;18</title>
<path fill="none" stroke="black" d="M1429.18,-184.31C1496.39,-199.54 1604.09,-223.94 1685.79,-242.45"/>
<polygon fill="black" stroke="black" points="1685.1,-245.88 1695.62,-244.68 1686.64,-239.05 1685.1,-245.88"/>
<text text-anchor="middle" x="1628" y="-212.8" font-family="Times,serif" font-size="14.00">exchange</text>
</g>
<!-- 0&#45;&gt;2 -->
<g id="edge8" class="edge">
<title>0&#45;&gt;2</title>
<path fill="none" stroke="black" d="M477.96,-188.4C518.07,-202.89 574.64,-223.32 620.38,-239.84"/>
<polygon fill="black" stroke="black" points="619.37,-243.19 629.97,-243.3 621.75,-236.61 619.37,-243.19"/>
<text text-anchor="middle" x="592" y="-212.8" font-family="Times,serif" font-size="14.00">oracle</text>
</g>
<!-- 48&#45;&gt;52 -->
<g id="edge12" class="edge">
<title>48&#45;&gt;52</title>
<path fill="none" stroke="black" d="M2238,-146.79C2238,-129.28 2238,-104.3 2238,-85.3"/>
<polygon fill="black" stroke="black" points="2241.5,-85.17 2238,-75.17 2234.5,-85.17 2241.5,-85.17"/>
<text text-anchor="middle" x="2271.5" y="-117.8" font-family="Times,serif" font-size="14.00">authority</text>
</g>
<!-- 48&#45;&gt;50 -->
<g id="edge13" class="edge">
<title>48&#45;&gt;50</title>
<path fill="none" stroke="black" d="M2266.78,-191.1C2274.16,-196.75 2281.99,-202.97 2289,-209 2298.5,-217.17 2308.43,-226.42 2317.46,-235.13"/>
<polygon fill="black" stroke="black" points="2315.19,-237.8 2324.79,-242.28 2320.07,-232.79 2315.19,-237.8"/>
<text text-anchor="middle" x="2338" y="-212.8" font-family="Times,serif" font-size="14.00">exchange</text>
</g>
</g>
</svg>
