<?xml version="1.0" encoding="UTF-8" standalone="no"?>
<!DOCTYPE svg PUBLIC "-//W3C//DTD SVG 1.1//EN"
 "http://www.w3.org/Graphics/SVG/1.1/DTD/svg11.dtd">
<!-- Generated by graphviz version 2.43.0 (0)
 -->
<!-- Title: ProofArchitecture Pages: 1 -->
<svg width="664pt" height="401pt"
 viewBox="0.00 0.00 664.28 401.00" xmlns="http://www.w3.org/2000/svg" xmlns:xlink="http://www.w3.org/1999/xlink">
<g id="graph0" class="graph" transform="scale(1 1) rotate(0) translate(4 397)">
<title>ProofArchitecture</title>
<polygon fill="white" stroke="transparent" points="-4,4 -4,-397 660.28,-397 660.28,4 -4,4"/>
<g id="clust1" class="cluster">
<title>cluster</title>
<path fill="none" stroke="black" stroke-dasharray="5,2" d="M20,-79C20,-79 414,-79 414,-79 420,-79 426,-85 426,-91 426,-91 426,-373 426,-373 426,-379 420,-385 414,-385 414,-385 20,-385 20,-385 14,-385 8,-379 8,-373 8,-373 8,-91 8,-91 8,-85 14,-79 20,-79"/>
</g>
<!-- protocol_theorems -->
<g id="node1" class="node">
<title>protocol_theorems</title>
<ellipse fill="none" stroke="black" cx="310" cy="-341" rx="108.34" ry="36"/>
<text text-anchor="middle" x="310" y="-337.3" font-family="Times,serif" font-size="14.00">protocol validity theorems</text>
</g>
<!-- cardano_axioms -->
<g id="node2" class="node">
<title>cardano_axioms</title>
<ellipse fill="none" stroke="black" cx="546" cy="-123" rx="110.06" ry="36"/>
<text text-anchor="middle" x="546" y="-119.3" font-family="Times,serif" font-size="14.00">cardano blockchain axioms</text>
</g>
<!-- cardano_axioms&#45;&gt;protocol_theorems -->
<g id="edge7" class="edge">
<title>cardano_axioms&#45;&gt;protocol_theorems</title>
<path fill="none" stroke="black" d="M504.78,-156.5C490.66,-168.35 475.12,-182.24 462,-196 434.02,-225.34 434.92,-239.59 406,-268 393.7,-280.08 379.32,-291.88 365.49,-302.31"/>
<polygon fill="black" stroke="black" points="363.38,-299.52 357.43,-308.29 367.55,-305.14 363.38,-299.52"/>
</g>
<!-- induction_library -->
<g id="node3" class="node">
<title>induction_library</title>
<ellipse fill="none" stroke="black" cx="543" cy="-232" rx="71.52" ry="36"/>
<text text-anchor="middle" x="543" y="-228.3" font-family="Times,serif" font-size="14.00">induction library</text>
</g>
<!-- cardano_axioms&#45;&gt;induction_library -->
<g id="edge6" class="edge">
<title>cardano_axioms&#45;&gt;induction_library</title>
<path fill="none" stroke="black" d="M545.02,-159.04C544.78,-167.53 544.52,-176.74 544.27,-185.64"/>
<polygon fill="black" stroke="black" points="540.77,-185.79 543.98,-195.89 547.76,-185.99 540.77,-185.79"/>
</g>
<!-- transaction_lemmas -->
<g id="node4" class="node">
<title>transaction_lemmas</title>
<ellipse fill="none" stroke="black" cx="314" cy="-232" rx="83.24" ry="36"/>
<text text-anchor="middle" x="314" y="-228.3" font-family="Times,serif" font-size="14.00">transaction lemmas</text>
</g>
<!-- cardano_axioms&#45;&gt;transaction_lemmas -->
<g id="edge3" class="edge">
<title>cardano_axioms&#45;&gt;transaction_lemmas</title>
<path fill="none" stroke="black" d="M476.53,-151.16C457.1,-159.12 436.09,-168.1 417,-177 402.82,-183.61 387.78,-191.18 373.7,-198.5"/>
<polygon fill="black" stroke="black" points="371.84,-195.53 364.61,-203.27 375.09,-201.72 371.84,-195.53"/>
</g>
<!-- induction_library&#45;&gt;protocol_theorems -->
<g id="edge8" class="edge">
<title>induction_library&#45;&gt;protocol_theorems</title>
<path fill="none" stroke="black" d="M497.28,-259.8C481.01,-268.9 462.41,-278.83 445,-287 427.73,-295.11 408.85,-303.06 390.83,-310.24"/>
<polygon fill="black" stroke="black" points="389.52,-306.99 381.5,-313.92 392.08,-313.51 389.52,-306.99"/>
</g>
<!-- transaction_lemmas&#45;&gt;protocol_theorems -->
<g id="edge9" class="edge">
<title>transaction_lemmas&#45;&gt;protocol_theorems</title>
<path fill="none" stroke="black" d="M312.69,-268.04C312.37,-276.53 312.03,-285.74 311.7,-294.64"/>
<polygon fill="black" stroke="black" points="308.19,-294.76 311.31,-304.89 315.18,-295.02 308.19,-294.76"/>
</g>
<!-- validator_lemmas -->
<g id="node5" class="node">
<title>validator_lemmas</title>
<ellipse fill="none" stroke="black" cx="114" cy="-123" rx="98.28" ry="36"/>
<text text-anchor="middle" x="114" y="-119.3" font-family="Times,serif" font-size="14.00">validator script lemmas</text>
</g>
<!-- validator_lemmas&#45;&gt;transaction_lemmas -->
<g id="edge4" class="edge">
<title>validator_lemmas&#45;&gt;transaction_lemmas</title>
<path fill="none" stroke="black" d="M168.39,-153.1C194.78,-167.22 226.58,-184.23 253.71,-198.75"/>
<polygon fill="black" stroke="black" points="252.25,-201.93 262.72,-203.57 255.55,-195.76 252.25,-201.93"/>
</g>
<!-- minting_lemmas -->
<g id="node6" class="node">
<title>minting_lemmas</title>
<ellipse fill="none" stroke="black" cx="324" cy="-123" rx="93.84" ry="36"/>
<text text-anchor="middle" x="324" y="-119.3" font-family="Times,serif" font-size="14.00">minting script lemmas</text>
</g>
<!-- minting_lemmas&#45;&gt;transaction_lemmas -->
<g id="edge5" class="edge">
<title>minting_lemmas&#45;&gt;transaction_lemmas</title>
<path fill="none" stroke="black" d="M320.73,-159.04C319.93,-167.53 319.07,-176.74 318.24,-185.64"/>
<polygon fill="black" stroke="black" points="314.73,-185.6 317.28,-195.89 321.7,-186.25 314.73,-185.6"/>
</g>
<!-- validator_code -->
<g id="node7" class="node">
<title>validator_code</title>
<polygon fill="none" stroke="black" points="196,-36 32,-36 32,0 196,0 196,-36"/>
<text text-anchor="middle" x="114" y="-14.3" font-family="Times,serif" font-size="14.00">validator script code</text>
</g>
<!-- validator_code&#45;&gt;validator_lemmas -->
<g id="edge2" class="edge">
<title>validator_code&#45;&gt;validator_lemmas</title>
<path fill="none" stroke="black" d="M114,-36.01C114,-47.04 114,-61.99 114,-76.32"/>
<polygon fill="black" stroke="black" points="110.5,-76.59 114,-86.59 117.5,-76.59 110.5,-76.59"/>
<text text-anchor="middle" x="163" y="-57.8" font-family="Times,serif" font-size="14.00">Plutus prover</text>
</g>
<!-- minting_code -->
<g id="node8" class="node">
<title>minting_code</title>
<polygon fill="none" stroke="black" points="401.5,-36 246.5,-36 246.5,0 401.5,0 401.5,-36"/>
<text text-anchor="middle" x="324" y="-14.3" font-family="Times,serif" font-size="14.00">minting script code</text>
</g>
<!-- minting_code&#45;&gt;minting_lemmas -->
<g id="edge1" class="edge">
<title>minting_code&#45;&gt;minting_lemmas</title>
<path fill="none" stroke="black" d="M324,-36.01C324,-47.04 324,-61.99 324,-76.32"/>
<polygon fill="black" stroke="black" points="320.5,-76.59 324,-86.59 327.5,-76.59 320.5,-76.59"/>
<text text-anchor="middle" x="373" y="-57.8" font-family="Times,serif" font-size="14.00">Plutus prover</text>
</g>
</g>
</svg>
